HIERARCHY
ROOT Hips
{
    OFFSET 0.000000 0.000000 0.000000
    CHANNELS 6 Xposition Yposition Zposition Zrotation Xrotation Yrotation
    JOINT Spine
    {
        OFFSET -0.000000 14.517291 0.000000
        CHANNELS 3 Zrotation Xrotation Yrotation
        JOINT Spine1
        {
            OFFSET -0.000000 37.558300 0.000000
            CHANNELS 3 Zrotation Xrotation Yrotation
            JOINT Neck
            {
                OFFSET -0.000000 37.404057 3.400369
                CHANNELS 3 Zrotation Xrotation Yrotation
                JOINT Head
                {
                    OFFSET -0.000000 24.785618 -3.540803
                    CHANNELS 3 Zrotation Xrotation Yrotation
                    End Site
                    {
                        OFFSET -0.000000 35.408028 0.000000
                    }
                }
            }
            JOINT LeftShoulder
            {
                OFFSET 6.992933 33.973492 -0.192664
                CHANNELS 3 Zrotation Xrotation Yrotation
                JOINT LeftArm
                {
                    OFFSET 21.527611 0.000000 0.000000
                    CHANNELS 3 Zrotation Xrotation Yrotation
                    JOINT LeftForeArm
                    {
                        OFFSET 56.353916 0.000000 0.000000
                        CHANNELS 3 Zrotation Xrotation Yrotation
                        JOINT LeftHand
                        {
                            OFFSET 47.774071 0.000000 0.000000
                            CHANNELS 3 Zrotation Xrotation Yrotation
                            End Site
                            {
                                OFFSET 26.556021 0.000000 0.000000
                            }
                        }
                    }
                }
            }
            JOINT RightShoulder
            {
                OFFSET -7.065357 33.973492 -0.192664
                CHANNELS 3 Zrotation Xrotation Yrotation
                JOINT RightArm
                {
                    OFFSET -21.527611 0.000000 0.000000
                    CHANNELS 3 Zrotation Xrotation Yrotation
                    JOINT RightForeArm
                    {
                        OFFSET -56.353916 0.000000 0.000000
                        CHANNELS 3 Zrotation Xrotation Yrotation
                        JOINT RightHand
                        {
                            OFFSET -47.774071 0.000000 0.000000
                            CHANNELS 3 Zrotation Xrotation Yrotation
                            End Site
                            {
                                OFFSET -26.556021 0.000000 0.000000
                            }
                        }
                    }
                }
            }
        }
    }
    JOINT LeftUpLeg
    {
        OFFSET 17.704014 0.000000 0.000000
        CHANNELS 3 Zrotation Xrotation Yrotation
        JOINT LeftLeg
        {
            OFFSET -0.000000 -81.181816 0.000000
            CHANNELS 3 Zrotation Xrotation Yrotation
            JOINT LeftFoot
            {
                OFFSET -0.000000 -62.821102 0.000000
                CHANNELS 3 Zrotation Xrotation Yrotation
                JOINT LeftToeBase
                {
                    OFFSET -0.000000 -11.507608 26.556021
                    CHANNELS 3 Zrotation Xrotation Yrotation
                    End Site
                    {
                        OFFSET -0.000000 0.000000 7.081605
                    }
                }
            }
        }
    }
    JOINT RightUpLeg
    {
        OFFSET -17.704014 0.000000 0.000000
        CHANNELS 3 Zrotation Xrotation Yrotation
        JOINT RightLeg
        {
            OFFSET -0.000000 -81.181816 0.000000
            CHANNELS 3 Zrotation Xrotation Yrotation
            JOINT RightFoot
            {
                OFFSET -0.000000 -62.821102 0.000000
                CHANNELS 3 Zrotation Xrotation Yrotation
                JOINT RightToeBase
                {
                    OFFSET -0.000000 -11.507608 26.556021
                    CHANNELS 3 Zrotation Xrotation Yrotation
                    End Site
                    {
                        OFFSET -0.000000 0.000000 7.081605
                    }
                }
            }
        }
    }
}
MOTION
Frames:    10
Frame Time:    0.008333
-14.114305    151.689423    -98.520515    2.688113    -4.370443    48.545376    -2.068604    0.382079    1.044913    -0.398531    2.196366    0.353354    -2.040997    5.292833    -20.663773    17.541361    1.277310    -19.118809    2.792880    7.928316    -13.519400    -34.463528    23.428452    -49.890682    -3.083473    -26.733711    -121.297958    -8.263886    -30.746639    -12.554018    -3.837471    10.726748    -2.883691    19.893719    8.940333    36.993160    0.100241    24.323090    102.727722    -29.897026    20.789330    13.793820    16.543001    -4.676189    -7.965041    -18.420773    40.988216    -21.338360    7.317313    -31.552324    52.031246    0.000000    0.000000    0.000000    -25.808601    -15.925508    -26.627401    10.367753    30.682404    -17.723082    5.640908    5.087739    -8.475896    0.000000    0.000000    0.000000    
-14.120025    151.695175    -98.507690    2.699077    -4.379516    48.528179    -2.070019    0.391540    1.059014    -0.399514    2.195474    0.358040    -2.022317    5.292903    -20.664463    17.506708    1.281665    -19.126450    2.790805    7.934778    -13.527811    -34.470730    23.433664    -49.863686    -3.099947    -26.696547    -121.317047    -8.291831    -30.735010    -12.560220    -3.840336    10.740636    -2.885160    19.863649    8.987265    37.001625    0.100813    24.422396    102.786819    -30.013288    20.881701    13.772132    16.542728    -4.642296    -7.979379    -18.416288    40.959007    -21.327524    7.314620    -31.545012    52.026844    0.000000    0.000000    0.000000    -25.793364    -15.925511    -26.638126    10.343105    30.690603    -17.723072    5.624070    5.092008    -8.451968    0.000000    0.000000    0.000000    
-14.117911    151.700516    -98.497597    2.714856    -4.380748    48.513672    -2.063998    0.392531    1.065876    -0.425910    2.206984    0.360978    -1.998341    5.282366    -20.661442    17.473938    1.293998    -19.131527    2.798608    7.935737    -13.519555    -34.469715    23.444727    -49.850044    -3.108588    -26.666550    -121.336601    -8.268243    -30.724483    -12.546711    -3.836984    10.738088    -2.884725    19.839752    9.057573    37.001488    0.084286    24.475817    102.868233    -30.097708    20.957342    13.725904    16.527925    -4.607903    -7.981913    -18.397558    40.931915    -21.336735    7.324993    -31.541136    52.041534    0.000000    0.000000    0.000000    -25.795200    -15.916175    -26.639179    10.332514    30.690811    -17.704203    5.634437    5.085440    -8.434017    0.000000    0.000000    0.000000    
-14.118695    151.702118    -98.483658    2.735211    -4.386698    48.499306    -2.072459    0.402760    1.076791    -0.426703    2.210951    0.364614    -2.027001    5.299771    -20.666727    17.510201    1.297893    -19.130526    2.795399    7.937606    -13.523906    -34.475754    23.467878    -49.814281    -3.136803    -26.659958    -121.396408    -8.357635    -30.762348    -12.490900    -3.845014    10.747903    -2.898915    19.822075    9.104409    37.024445    0.097190    24.555157    102.932549    -30.188250    21.028791    13.661376    16.517960    -4.571135    -7.997578    -18.397106    40.910469    -21.314308    7.307106    -31.549175    52.030457    0.000000    0.000000    0.000000    -25.795584    -15.904556    -26.628120    10.333810    30.695908    -17.707018    5.625063    5.076756    -8.434718    0.000000    0.000000    0.000000    
-14.118949    151.705338    -98.470238    2.750309    -4.388341    48.485794    -2.084998    0.400604    1.081969    -0.422523    2.223770    0.366238    -2.011804    5.289902    -20.666288    17.467831    1.311552    -19.138828    2.792131    7.939753    -13.519397    -34.484928    23.459246    -49.799393    -3.150264    -26.621134    -121.406502    -8.405488    -30.741302    -12.503725    -3.844653    10.746006    -2.886330    19.791691    9.157292    37.010517    0.089059    24.625088    103.052238    -30.340937    21.104061    13.612431    16.506269    -4.545434    -8.014877    -18.394629    40.892773    -21.296629    7.294596    -31.551281    52.037628    0.000000    0.000000    0.000000    -25.793764    -15.895702    -26.631901    10.322221    30.693365    -17.711405    5.601675    5.067538    -8.402549    0.000000    0.000000    0.000000    
-14.121276    151.704620    -98.462364    2.763131    -4.388139    48.469734    -2.086522    0.410644    1.087223    -0.434666    2.216900    0.368207    -2.006811    5.289618    -20.660618    17.448063    1.316529    -19.136604    2.793276    7.940577    -13.511656    -34.485725    23.467066    -49.790131    -3.162881    -26.599701    -121.426895    -8.390510    -30.743931    -12.495543    -3.847677    10.760611    -2.893199    19.767984    9.192628    37.026604    0.087396    24.727837    103.191833    -30.615093    21.179724    13.608086    16.494297    -4.528002    -8.020271    -18.393230    40.888371    -21.290108    7.295913    -31.552063    52.047836    0.000000    0.000000    0.000000    -25.814491    -15.892202    -26.561548    10.399840    30.695360    -17.751505    5.589804    5.059352    -8.440666    0.000000    0.000000    0.000000    
-14.120789    151.702621    -98.454796    2.770456    -4.387086    48.459015    -2.087184    0.409009    1.092350    -0.434516    2.214798    0.369792    -2.009917    5.302322    -20.657843    17.428230    1.302379    -19.133911    2.788525    7.937167    -13.516148    -34.493607    23.464401    -49.771832    -3.168183    -26.578316    -121.434097    -8.412569    -30.729607    -12.505254    -3.861269    10.763161    -2.887358    19.761972    9.210664    37.028111    0.102060    24.840326    103.306976    -30.762833    21.273197    13.557914    16.483755    -4.520433    -8.038239    -18.396324    40.891758    -21.277706    7.293809    -31.556431    52.061451    0.000000    0.000000    0.000000    -25.820583    -15.892945    -26.570021    10.402743    30.707361    -17.748800    5.581410    5.045905    -8.427306    0.000000    0.000000    0.000000    
-14.123410    151.697510    -98.445854    2.783709    -4.396233    48.444714    -2.079756    0.421336    1.099527    -0.451123    2.213247    0.372613    -2.003550    5.308495    -20.658531    17.415636    1.291590    -19.135344    2.801123    7.939652    -13.518949    -34.497562    23.446999    -49.761440    -3.175321    -26.557133    -121.444611    -8.434089    -30.719160    -12.504489    -3.858859    10.761539    -2.891260    19.738426    9.262111    37.039146    0.081347    24.882000    103.422646    -30.881128    21.337753    13.513263    16.478577    -4.501471    -8.061997    -18.411814    40.892483    -21.239241    7.284993    -31.571075    52.071243    0.000000    0.000000    0.000000    -25.819458    -15.887955    -26.577221    10.396697    30.720135    -17.752157    5.580986    5.032588    -8.397290    0.000000    0.000000    0.000000    
-14.123878    151.687714    -98.443542    2.793414    -4.404274    48.424328    -2.068521    0.433572    1.103994    -0.456964    2.209615    0.374033    -2.004542    5.314004    -20.652824    17.384367    1.271979    -19.130280    2.799353    7.927874    -13.512991    -34.495426    23.450159    -49.754887    -3.173130    -26.563251    -121.450111    -8.428692    -30.723940    -12.485236    -3.880434    10.783457    -2.893417    19.718262    9.292901    37.073349    0.070415    24.928751    103.527336    -30.927542    21.415459    13.426654    16.473242    -4.486643    -8.064816    -18.408129    40.907761    -21.260244    7.317467    -31.570507    52.103542    0.000000    0.000000    0.000000    -25.821787    -15.892467    -26.585793    10.395640    30.743914    -17.713541    5.560260    5.020564    -8.401739    0.000000    0.000000    0.000000    
-14.122346    151.678146    -98.435341    2.809795    -4.413980    48.404682    -2.065173    0.447153    1.105795    -0.463824    2.206668    0.374718    -2.016594    5.322609    -20.642248    17.377686    1.261826    -19.117342    2.801170    7.927786    -13.502069    -34.478569    23.444183    -49.777969    -3.163557    -26.558529    -121.422195    -8.296933    -30.711994    -12.523361    -3.891810    10.792359    -2.879499    19.693722    9.345775    37.081486    0.038823    24.959703    103.670029    -31.008158    21.495621    13.347811    16.467113    -4.463403    -8.072466    -18.417902    40.916492    -21.239498    7.312768    -31.593832    52.116135    0.000000    0.000000    0.000000    -25.827312    -15.890354    -26.587984    10.401228    30.769934    -17.734671    5.552419    4.999973    -8.357510    0.000000    0.000000    0.000000    
